<svg xmlns="http://www.w3.org/2000/svg" width="12" height="15" viewBox="0 0 12 15">
  <g fill="#8A94A6" opacity=".503" transform="translate(0 1)">
    <path d="M6.13695545,0.404062987 L5.98780724,0.400200588 L5.97145455,0.4 C4.17781017,0.4 2.75933333,1.81847683 2.75933333,3.61212121 L2.75933333,5.13939394 C2.75933333,5.50758377 3.05781017,5.80606061 3.426,5.80606061 L8.51690909,5.80606061 C8.88509892,5.80606061 9.18357576,5.50758377 9.18357576,5.13939394 L9.18357576,3.61212121 C9.18357576,1.88029349 7.85814012,0.488807224 6.13695545,0.404062987 Z M5.964,1.73266667 L6.08781847,1.73638914 L6.20157402,1.74539147 C7.14061643,1.84787778 7.85024242,2.63061683 7.85024242,3.61212121 L7.85,4.47266667 L4.09266667,4.47266667 L4.09266667,3.61212121 C4.09266667,2.59401445 4.85446318,1.79451028 5.85498058,1.73668433 L5.964,1.73266667 Z"/>
    <path d="M8.99467127,4.47272727 L2.95078353,4.47272727 C1.61434954,4.47272727 0.533333333,5.55041432 0.533333333,6.88292099 L0.533333333,10.5231396 C0.533333333,11.8481851 1.6189674,12.9333333 2.95078353,12.9333333 L8.99467127,12.9333333 C10.3311053,12.9333333 11.4121215,11.8556463 11.4121215,10.5231396 L11.4121215,6.88292099 C11.4121215,5.55787553 10.3264874,4.47272727 8.99467127,4.47272727 Z M2.95078353,5.80606061 L8.99467127,5.80606061 C9.5902413,5.80606061 10.0787881,6.29438882 10.0787881,6.88292099 L10.0787881,10.5231396 C10.0787881,11.1183444 9.59564464,11.6 8.99467127,11.6 L2.95078353,11.6 C2.3552135,11.6 1.86666667,11.1116718 1.86666667,10.5231396 L1.86666667,6.88292099 C1.86666667,6.28771618 2.34981016,5.80606061 2.95078353,5.80606061 Z"/>
  </g>
</svg>
