<svg xmlns="http://www.w3.org/2000/svg" width="14" height="13" viewBox="0 0 14 13">
  <path fill="none" stroke="#8A94A6" stroke-linecap="round" stroke-linejoin="round" stroke-width=".951" d="M1.85486939 8.78920675L.665333584 8.78920675C.298014001 8.78920675 0 8.48919266 0 8.11940784L0 3.43335259C0 3.06356778.298014001 2.76355368.665333584 2.76355368L1.85486939 2.76355368C2.22218897 2.76355368 2.52020297 3.06356778 2.52020297 3.43335259L2.52020297 8.11940784C2.52020297 8.48919266 2.22218897 8.78920675 1.85486939 8.78920675L1.85486939 8.78920675zM2.52020297 3.44350106L4.81925813.430040244C5.24706258-.131296911 6.08250987-.145251055 6.52921584.400863398L6.52921584.400863398C6.69617929.604467044 6.7869066.860715869 6.7869066 1.12457605L6.7869066 3.19930354 8.73754369 3.19930354C9.11620419 3.19930354 9.46966266 3.38958732 9.68009961 3.70609268L9.8873863 4.0175238C10.0732513 4.29724096 10.1274356 4.64546028 10.0348182 4.96830843L9.17857921 7.96337514C9.03870795 8.45240446 8.59452218 8.78920675 8.08922148 8.78920675L4.12683236 8.78920675C3.81180699 8.78920675 3.51064274 8.65727667 3.29642548 8.42513045L2.52020297 7.58407614" transform="translate(2 1.725)"/>
</svg>
