<svg xmlns="http://www.w3.org/2000/svg" width="22" height="26" viewBox="0 0 22 26">
  <g fill="none" fill-rule="evenodd" transform="translate(.92 2.064)">
    <g stroke="#929BAC" stroke-linecap="round" stroke-linejoin="round" stroke-width="1.5" transform="translate(2.287 3.268)">
      <path d="M5.28687918,13.7344757 L5.28687918,14.1101565 C5.2871634,15.4130344 6.34358503,16.4689952 7.64646293,16.468711 C8.94934083,16.4684267 10.0053016,15.4120051 10.0050175,14.1091272 L10.0050175,13.7334465"/>
      <path d="M2.04984933,5.33981266 C2.04957625,4.1028687 2.54082938,2.91650833 3.41548086,2.04185685 C4.29013235,1.16720536 5.47649272,0.675952226 6.71343668,0.676225198 L8.57948918,0.676225198 C9.81643315,0.675952226 11.0027935,1.16720536 11.877445,2.04185685 C12.7520965,2.91650833 13.2433496,4.1028687 13.2430765,5.33981266 L13.2430765,8.21865924 C13.2431931,8.76456927 13.4601492,9.2880777 13.8462242,9.67403609 L14.5059813,10.3337932 C14.8920563,10.7197516 15.109129,11.24326 15.109129,11.7891701 C15.109129,12.3050972 14.9041778,12.7998933 14.5393622,13.1647089 C14.1745466,13.5295245 13.6797505,13.7344757 13.1638233,13.7344757 L2.12910253,13.7344757 C1.05473986,13.7344757 0.183796834,12.8635327 0.183796834,11.7891701 C0.183796834,11.24326 0.400869534,10.7197516 0.786944525,10.3337932 L1.44670164,9.67403609 C1.83277663,9.2880777 2.04973274,8.76456927 2.04984933,8.21865924 L2.04984933,5.33981266 Z"/>
    </g>
    <rect width="8.626" height="8.626" x="10.064" fill="#506CF0" stroke="#FFF" stroke-width="2.157" rx="4.313"/>
  </g>
</svg>
