<svg xmlns="http://www.w3.org/2000/svg" width="22" height="22" viewBox="0 0 22 22">
  <path fill="none" stroke="#929BAC" stroke-width="1.5" d="M11.2159007 6.46964856L11.2159007 15.8146965 14.3677808 15.8146965C15.5588102 15.8146965 16.5243303 14.8491764 16.5243303 13.658147L16.5243303 6.46964856C16.5243303 5.27861915 15.5588102 4.31309904 14.3677808 4.31309904L13.3724503 4.31309904C12.1814208 4.31309904 11.2159007 5.27861915 11.2159007 6.46964856zM5.82452691 2.15654952L5.82452691 15.8146965 11.1329565 15.8146965 11.1329565 2.15654952C11.1329565.965520105 10.1674364 0 8.97640698 0L7.98107643 0C6.79004702 0 5.82452691.965520105 5.82452691 2.15654952zM.433153109 10.0638978L.433153109 13.658147C.433153109 14.8491764 1.39867322 15.8146965 2.58970263 15.8146965L5.7415827 15.8146965 5.7415827 10.0638978C5.7415827 8.87286834 4.77606259 7.90734824 3.58503318 7.90734824L2.58970263 7.90734824C1.39867322 7.90734824.433153109 8.87286834.433153109 10.0638978z" transform="translate(2.348 2.94)"/>
</svg>
