<?xml version="1.0" encoding="UTF-8"?>
<svg width="264px" height="76px" viewBox="0 0 264 76" version="1.1" xmlns="http://www.w3.org/2000/svg" xmlns:xlink="http://www.w3.org/1999/xlink">
    <title>Circle</title>
    <g id="Request-Demo-Flow" stroke="none" stroke-width="1" fill="none" fill-rule="evenodd">
        <g id="Pre-recorded-Demo" transform="translate(-590.000000, -58.000000)" fill="#506BF0" fill-rule="nonzero">
            <path d="M626.487014,133.2 C637.787014,133.2 645.287014,129.6 651.887014,123.8 C652.987014,122.8 653.887014,121.3 653.887014,119.4 C653.887014,116.3 651.187014,113.7 648.087014,113.7 C646.587014,113.7 645.287014,114.3 644.387014,115.1 C639.287014,119.4 634.287014,121.8 626.887014,121.8 C613.487014,121.8 603.787014,110.7 603.787014,97 L603.787014,96.8 C603.787014,83.1 613.587014,72.1 626.887014,72.1 C633.587014,72.1 638.787014,74.5 643.587014,78.4 C644.387014,79 645.587014,79.6 647.287014,79.6 C650.687014,79.6 653.387014,77 653.387014,73.6 C653.387014,71.4 652.287014,69.7 650.987014,68.7 C644.887014,64 637.787014,60.8 626.987014,60.8 C605.787014,60.8 590.887014,77.1 590.887014,97 L590.887014,97.2 C590.887014,117.3 606.087014,133.2 626.487014,133.2 Z M670.091343,71.6 C673.991343,71.6 676.991343,69.2 676.991343,65.6 L676.991343,65 C676.991343,61.4 673.991343,59.1 670.091343,59.1 C666.191343,59.1 663.191343,61.4 663.191343,65 L663.191343,65.6 C663.191343,69.2 666.191343,71.6 670.091343,71.6 Z M670.091343,132.5 C673.491343,132.5 676.191343,129.9 676.191343,126.5 L676.191343,84.7 C676.191343,81.3 673.491343,78.6 670.091343,78.6 C666.691343,78.6 664.091343,81.3 664.091343,84.7 L664.091343,126.5 C664.091343,129.9 666.791343,132.5 670.091343,132.5 Z M694.995671,132.5 C698.395671,132.5 701.095671,129.8 701.095671,126.5 L701.095671,110.9 C701.095671,98.4 706.995671,91.8 715.595671,90.3 C718.295671,89.8 720.395671,87.7 720.395671,84.5 C720.395671,81 718.195671,78.5 714.395671,78.5 C709.095671,78.5 703.895671,83.5 701.095671,90.1 L701.095671,84.7 C701.095671,81.3 698.395671,78.6 694.995671,78.6 C691.595671,78.6 688.995671,81.3 688.995671,84.7 L688.995671,126.5 C688.995671,129.9 691.695671,132.5 694.995671,132.5 Z M749.9,133.2 C758.7,133.2 764.4,130.2 769.1,125.7 C770.2,124.8 770.8,123.5 770.8,121.9 C770.8,119 768.5,116.6 765.6,116.6 C764.2,116.6 763,117.3 762.3,117.9 C759,120.7 755.3,122.6 750.5,122.6 C741.2,122.6 734.7,115.1 734.7,105.7 L734.7,105.5 C734.7,96.3 741.2,88.7 750,88.7 C754.8,88.7 758.2,90.6 761.3,93.2 C762.1,93.8 763.4,94.4 764.9,94.4 C768,94.4 770.5,92 770.5,88.9 C770.5,86.9 769.4,85.4 768.6,84.7 C764.1,80.8 758.4,78.1 750.1,78.1 C734.2,78.1 722.6,90.7 722.6,105.7 L722.6,105.9 C722.6,120.9 734.2,133.2 749.9,133.2 Z M786.304329,132.5 C789.704329,132.5 792.404329,129.9 792.404329,126.5 L792.404329,64.5 C792.404329,61.2 789.704329,58.5 786.304329,58.5 C782.904329,58.5 780.304329,61.2 780.304329,64.5 L780.304329,126.5 C780.304329,129.9 783.004329,132.5 786.304329,132.5 Z M829.408657,133.2 C837.608657,133.2 843.608657,130.5 848.408657,126.2 C849.308657,125.3 850.008657,124 850.008657,122.5 C850.008657,119.7 847.908657,117.6 845.208657,117.6 C843.808657,117.6 843.008657,118 842.108657,118.7 C838.708657,121.5 834.708657,123.3 829.608657,123.3 C821.808657,123.3 815.708657,118.5 814.408657,109.9 L847.508657,109.9 C850.608657,109.9 853.208657,107.5 853.208657,104.1 C853.208657,91.9 844.908657,78.1 828.108657,78.1 C813.008657,78.1 802.308657,90.5 802.308657,105.6 L802.308657,105.8 C802.308657,122.1 814.108657,133.2 829.408657,133.2 Z M841.408657,101.9 L814.308657,101.9 C815.408657,93.7 820.608657,88 828.008657,88 C836.008657,88 840.608657,94.1 841.408657,101.9 Z" id="Circle"></path>
        </g>
    </g>
</svg>