<svg xmlns="http://www.w3.org/2000/svg" width="95" height="13" viewBox="0 0 95 13">
  <path fill="#424752" d="M63.3776358,28.5806709 C63.9311502,28.5806709 64.358147,28.1536741 64.358147,27.6159744 L64.358147,18.3485623 C64.358147,17.8108626 63.9311502,17.3680511 63.3776358,17.3680511 L63.1720447,17.3680511 C62.7766773,17.3680511 62.4920128,17.5420128 62.2864217,17.8741214 L58.9178914,23.1404153 L55.5651757,17.8899361 C55.3753994,17.5894569 55.0907348,17.3680511 54.663738,17.3680511 L54.458147,17.3680511 C53.9046326,17.3680511 53.4776358,17.8108626 53.4776358,18.3485623 L53.4776358,27.6317891 C53.4776358,28.1694888 53.8888179,28.5806709 54.4265176,28.5806709 C54.9642173,28.5806709 55.3912141,28.1694888 55.3912141,27.6317891 L55.3912141,21.0054313 L58.0797125,25.0381789 C58.2853035,25.3544728 58.5383387,25.5442492 58.886262,25.5442492 C59.25,25.5442492 59.5030351,25.3544728 59.7086262,25.0381789 L62.4129393,20.9738019 L62.4129393,27.6159744 C62.4129393,28.1378594 62.8557508,28.5806709 63.3776358,28.5806709 Z M70.6078275,28.6913738 C73.185623,28.6913738 75.0833866,26.7145367 75.0833866,24.3423323 L75.0833866,24.3107029 C75.0833866,21.9226837 73.2014377,19.977476 70.6394569,19.977476 C68.0774761,19.977476 66.1797125,21.9543131 66.1797125,24.3423323 L66.1797125,24.3739617 C66.1797125,26.7461661 68.0616614,28.6913738 70.6078275,28.6913738 Z M70.6394569,27.015016 C69.1528754,27.015016 68.0932908,25.7972843 68.0932908,24.3423323 L68.0932908,24.3107029 C68.0932908,22.8557508 69.0738019,21.6538339 70.6078275,21.6538339 C72.1102237,21.6538339 73.1698083,22.8715655 73.1698083,24.3423323 L73.1698083,24.3739617 C73.1698083,25.813099 72.1892971,27.015016 70.6394569,27.015016 Z M80.1311502,28.6755591 C81.4912141,28.6755591 82.3610224,27.9797125 82.9777956,27.1099042 L82.9777956,27.6317891 C82.9777956,28.1694888 83.4047924,28.5806709 83.942492,28.5806709 C84.464377,28.5806709 84.8913738,28.1694888 84.8913738,27.6317891 L84.8913738,17.8266773 C84.8913738,17.2889776 84.464377,16.8777955 83.9266774,16.8777955 C83.4047924,16.8777955 82.9777956,17.2889776 82.9777956,17.8266773 L82.9777956,21.4482428 C82.3768371,20.657508 81.5070288,19.977476 80.1311502,19.977476 C78.1384984,19.977476 76.2565496,21.543131 76.2565496,24.3107029 L76.2565496,24.3423323 C76.2565496,27.1099042 78.1701278,28.6755591 80.1311502,28.6755591 Z M80.5897764,27.015016 C79.2929713,27.015016 78.1859425,25.9554313 78.1859425,24.3423323 L78.1859425,24.3107029 C78.1859425,22.6501597 79.2771566,21.6380192 80.5897764,21.6380192 C81.8707668,21.6380192 83.009425,22.6976038 83.009425,24.3107029 L83.009425,24.3423323 C83.009425,25.9396166 81.8707668,27.015016 80.5897764,27.015016 Z M90.7773163,28.6913738 C92.0741215,28.6913738 93.0230032,28.264377 93.7821087,27.584345 C93.9244409,27.4420128 94.0351438,27.2364217 94.0351438,26.9992013 C94.0351438,26.5563898 93.7030352,26.2242812 93.2760384,26.2242812 C93.0546326,26.2242812 92.9281151,26.2875399 92.7857828,26.3982428 C92.2480831,26.8410543 91.6154953,27.1257188 90.8089457,27.1257188 C89.5753994,27.1257188 88.6107029,26.3666134 88.4051119,25.0065495 L93.6397764,25.0065495 C94.130032,25.0065495 94.5412141,24.6269968 94.5412141,24.0892971 C94.5412141,22.1599042 93.2285943,19.977476 90.5717253,19.977476 C88.1837061,19.977476 86.4915336,21.9384984 86.4915336,24.3265176 L86.4915336,24.358147 C86.4915336,26.9359425 88.3576678,28.6913738 90.7773163,28.6913738 Z M92.6750799,23.7413738 L88.3892972,23.7413738 C88.5632588,22.4445687 89.3856231,21.543131 90.5559106,21.543131 C91.8210863,21.543131 92.5485624,22.5078275 92.6750799,23.7413738 Z M97.1060704,28.5806709 C97.64377,28.5806709 98.0707668,28.1536741 98.0707668,27.6317891 L98.0707668,25.1646965 C98.0707668,23.1878594 99.0038339,22.1440895 100.363898,21.906869 C100.790895,21.8277955 101.123003,21.4956869 101.123003,20.9896166 C101.123003,20.4361022 100.77508,20.0407348 100.174121,20.0407348 C99.3359426,20.0407348 98.5135783,20.8314696 98.0707668,21.8752396 L98.0707668,21.021246 C98.0707668,20.4835463 97.64377,20.0565495 97.1060704,20.0565495 C96.5683707,20.0565495 96.1571886,20.4835463 96.1571886,21.021246 L96.1571886,27.6317891 C96.1571886,28.1694888 96.5841854,28.5806709 97.1060704,28.5806709 Z M108.890895,28.5806709 C109.428594,28.5806709 109.839776,28.1694888 109.839776,27.6317891 L109.839776,23.1720447 C109.839776,21.2426518 108.748562,19.977476 106.866614,19.977476 C105.569808,19.977476 104.794888,20.657508 104.257189,21.4324281 L104.257189,21.021246 C104.257189,20.4835463 103.830192,20.0565495 103.292492,20.0565495 C102.754792,20.0565495 102.34361,20.4835463 102.34361,21.021246 L102.34361,27.6317891 C102.34361,28.1694888 102.770607,28.5806709 103.292492,28.5806709 C103.830192,28.5806709 104.257189,28.1694888 104.257189,27.6317891 L104.257189,23.7888179 C104.257189,22.4920128 105.032109,21.7170927 106.139137,21.7170927 C107.277796,21.7170927 107.926198,22.4603834 107.926198,23.7571885 L107.926198,27.6317891 C107.926198,28.1694888 108.353195,28.5806709 108.890895,28.5806709 Z M121.92508,28.5806709 C122.478594,28.5806709 122.905591,28.1536741 122.905591,27.6159744 L122.905591,18.3485623 C122.905591,17.8108626 122.478594,17.3680511 121.92508,17.3680511 L121.719489,17.3680511 C121.324122,17.3680511 121.039457,17.5420128 120.833866,17.8741214 L117.465336,23.1404153 L114.11262,17.8899361 C113.922844,17.5894569 113.638179,17.3680511 113.211182,17.3680511 L113.005591,17.3680511 C112.452077,17.3680511 112.02508,17.8108626 112.02508,18.3485623 L112.02508,27.6317891 C112.02508,28.1694888 112.436262,28.5806709 112.973962,28.5806709 C113.511661,28.5806709 113.938658,28.1694888 113.938658,27.6317891 L113.938658,21.0054313 L116.627157,25.0381789 C116.832748,25.3544728 117.085783,25.5442492 117.433706,25.5442492 C117.797444,25.5442492 118.050479,25.3544728 118.25607,25.0381789 L120.960383,20.9738019 L120.960383,27.6159744 C120.960383,28.1378594 121.403195,28.5806709 121.92508,28.5806709 Z M126.245368,18.9495208 C126.862141,18.9495208 127.336582,18.5699681 127.336582,18.000639 L127.336582,17.9057508 C127.336582,17.3364217 126.862141,16.9726837 126.245368,16.9726837 C125.628594,16.9726837 125.154153,17.3364217 125.154153,17.9057508 L125.154153,18.000639 C125.154153,18.5699681 125.628594,18.9495208 126.245368,18.9495208 Z M126.245368,28.5806709 C126.783067,28.5806709 127.210064,28.1694888 127.210064,27.6317891 L127.210064,21.021246 C127.210064,20.4835463 126.783067,20.0565495 126.245368,20.0565495 C125.707668,20.0565495 125.296486,20.4835463 125.296486,21.021246 L125.296486,27.6317891 C125.296486,28.1694888 125.723483,28.5806709 126.245368,28.5806709 Z M135.911023,28.5806709 C136.448722,28.5806709 136.859904,28.1694888 136.859904,27.6317891 L136.859904,23.1720447 C136.859904,21.2426518 135.76869,19.977476 133.886741,19.977476 C132.589936,19.977476 131.815016,20.657508 131.277316,21.4324281 L131.277316,21.021246 C131.277316,20.4835463 130.85032,20.0565495 130.31262,20.0565495 C129.77492,20.0565495 129.363738,20.4835463 129.363738,21.021246 L129.363738,27.6317891 C129.363738,28.1694888 129.790735,28.5806709 130.31262,28.5806709 C130.85032,28.5806709 131.277316,28.1694888 131.277316,27.6317891 L131.277316,23.7888179 C131.277316,22.4920128 132.052237,21.7170927 133.159265,21.7170927 C134.297923,21.7170927 134.946326,22.4603834 134.946326,23.7571885 L134.946326,27.6317891 C134.946326,28.1694888 135.373323,28.5806709 135.911023,28.5806709 Z M142.271406,28.6755591 C143.63147,28.6755591 144.501278,27.9797125 145.118051,27.1099042 L145.118051,27.6317891 C145.118051,28.1694888 145.545048,28.5806709 146.082748,28.5806709 C146.604633,28.5806709 147.03163,28.1694888 147.03163,27.6317891 L147.03163,17.8266773 C147.03163,17.2889776 146.604633,16.8777955 146.066933,16.8777955 C145.545048,16.8777955 145.118051,17.2889776 145.118051,17.8266773 L145.118051,21.4482428 C144.517093,20.657508 143.647285,19.977476 142.271406,19.977476 C140.278754,19.977476 138.396805,21.543131 138.396805,24.3107029 L138.396805,24.3423323 C138.396805,27.1099042 140.310384,28.6755591 142.271406,28.6755591 Z M142.730032,27.015016 C141.433227,27.015016 140.326198,25.9554313 140.326198,24.3423323 L140.326198,24.3107029 C140.326198,22.6501597 141.417412,21.6380192 142.730032,21.6380192 C144.011023,21.6380192 145.149681,22.6976038 145.149681,24.3107029 L145.149681,24.3423323 C145.149681,25.9396166 144.011023,27.015016 142.730032,27.015016 Z" transform="translate(-53 -16)"/>
</svg>
