<svg xmlns="http://www.w3.org/2000/svg" width="68" height="53" viewBox="0 0 68 53">
  <path fill="#929BAC" fill-rule="evenodd" d="M61.4114,14.2118 C65.0502,14.2118 68,10.3815 68,6.68789 C68,2.99427 65.0502,0 61.4114,0 C57.7727,0 54.8229,2.99427 54.8229,6.68789 C54.8229,10.3815 57.7727,14.2118 61.4114,14.2118 Z M56.3046,20.4682 C56.3046,19.6366 57.024,18.9959 57.84,19.0691 C59.0045,19.1736 60.1972,19.2278 61.4114,19.2278 C62.6646,19.2278 63.8949,19.17 65.0949,19.0589 C65.9124,18.9832 66.6346,19.6244 66.6346,20.4576 L66.6346,31.9633 L66.6346,46.7982 C66.6346,47.7733 65.665,48.4405 64.7726,48.0795 L57.1602,44.9992 C56.6435,44.7901 56.3046,44.2825 56.3046,43.7179 L56.3046,31.9633 L56.3046,20.4682 Z M4.67148,44.421 C6.74359,44.8849 8.84616,45.1169 10.9792,45.1169 C13.7522,45.1169 16.1138,44.7303 18.064,43.957 C20.0142,43.1837 21.4769,42.1475 22.452,40.8484 C23.4271,39.5493 23.9146,38.1109 23.9146,36.5334 C23.9146,34.461 23.3661,32.8681 22.2691,31.7545 C21.2026,30.641 19.9532,29.8832 18.5211,29.4811 C17.1193,29.0789 15.3977,28.7542 13.356,28.5067 C12.0457,28.3521 11.0859,28.1974 10.4764,28.0427 C9.86698,27.8572 9.56226,27.5633 9.56226,27.1612 C9.56226,26.357 10.6897,25.9549 12.9447,25.9549 C15.0319,25.9549 16.9839,26.3473 18.8006,27.1322 C19.5468,27.4547 20.4395,27.145 20.751,26.3849 L22.5226,22.0634 C22.793,21.4035 22.5239,20.6372 21.8709,20.37 C20.8364,19.9468 19.6589,19.6122 18.3382,19.3665 C16.5404,18.9953 14.6968,18.8097 12.8075,18.8097 C10.0955,18.8097 7.7644,19.1963 5.81419,19.9696 C3.89445,20.7429 2.44702,21.7791 1.47191,23.0782 C0.496806,24.3774 0.00925215,25.8466 0.00925215,27.486 C0.00925215,29.5584 0.542514,31.1514 1.60904,32.2649 C2.70603,33.3784 3.97063,34.1362 5.40281,34.5384 C6.835,34.9095 8.57191,35.2189 10.6135,35.4663 C11.9543,35.621 12.9142,35.7756 13.4932,35.9303 C14.1026,36.0849 14.4073,36.3633 14.4073,36.7654 C14.4073,37.1675 14.1635,37.4768 13.676,37.6934 C13.2189,37.879 12.3962,37.9718 11.2078,37.9718 C9.71462,37.9718 8.17578,37.7707 6.59123,37.3686 C5.6041,37.1181 4.69976,36.8076 3.8782,36.437 C3.1185,36.0944 2.19004,36.3995 1.87067,37.1786 L0.104198,41.4878 C-0.158975,42.1298 0.0879905,42.8758 0.713853,43.1585 C1.81504,43.6559 3.13425,44.0768 4.67148,44.421 Z M48.3881,20.4336 C46.5598,19.351 44.5486,18.8097 42.3546,18.8097 C39.9585,18.8097 38.0426,19.3253 36.607,20.3564 C36.1814,20.6621 35.4984,20.3787 35.4984,19.8495 C35.4984,19.5315 35.2444,19.2737 34.9311,19.2737 L27.03,19.2737 C26.2795,19.2737 25.6712,19.8912 25.6712,20.653 L25.6712,51.6193 C25.6712,52.5945 26.6408,53.2617 27.5331,52.9006 L35.1456,49.8203 C35.6622,49.6113 36.0012,49.1037 36.0012,48.5391 L36.0012,46.2172 C36.0012,44.9954 37.6128,44.214 38.7563,44.5954 C39.7991,44.9431 40.9985,45.1169 42.3546,45.1169 C44.5486,45.1169 46.5598,44.5911 48.3881,43.5394 C50.2469,42.4568 51.7096,40.9257 52.7761,38.9461 C53.8731,36.9356 54.4216,34.6157 54.4216,31.9865 C54.4216,29.3573 53.8731,27.0375 52.7761,25.0269 C51.7096,23.0164 50.2469,21.4853 48.3881,20.4336 Z M42.8117,35.6519 C42.0499,36.518 41.0748,36.951 39.8864,36.951 C38.698,36.951 37.7229,36.518 36.9611,35.6519 C36.1993,34.7858 35.8184,33.564 35.8184,31.9865 C35.8184,30.409 36.1993,29.1872 36.9611,28.3211 C37.7229,27.4241 38.698,26.9756 39.8864,26.9756 C41.0748,26.9756 42.0499,27.4241 42.8117,28.3211 C43.5735,29.1872 43.9544,30.409 43.9544,31.9865 C43.9544,33.564 43.5735,34.7858 42.8117,35.6519 Z"/>
</svg>
